<svg id="Calque_1" data-name="Calque 1" xmlns="http://www.w3.org/2000/svg" viewBox="0 0 425.2 29.97"><title>barres</title><path d="M425.2,13.05v5.41a9,9,0,0,1-2.34.89c-11.77.61-23.54,1.32-35.32,1.69-16,.5-31.94,1.07-47.91,1-21.39-.13-42.78-.93-64.17-1.35-18.43-.36-36.87-.72-55.3-.88-32.26-.27-64.52-.12-96.77-.69-15.48-.27-30.84.71-46.26,1.43-14,.66-28.06.25-42.1.35-9.35.07-18.71.22-28.06.32-2.17,0-4.34,0-7,0V13.64C4.78,9,10.64,7.61,17.34,7.83c10.83.35,21.67.09,32.5.32,13.76.28,27.56.27,41.26,1.32,28.52,2.18,57.07.93,85.6,1.25,29.06.33,58.14.83,87.17-.17,22.87-.78,45.73-1.49,68.6-1.15,20.9.31,41.79,1,62.69,1.64,8.09.24,16.18.72,24.27,1.16C421.1,12.29,422.75,12.68,425.2,13.05Z"/></svg>