<svg id="Calque_1" data-name="Calque 1" xmlns="http://www.w3.org/2000/svg" viewBox="0 0 425.2 27.83"><title>barres</title><path d="M.09,9.59C1.85,5.17,4.56,4.71,7,5.65c4.29,1.67,8.61,1.22,12.91,1.11,9.37-.24,18.77-1.69,28.09-1,8.29.57,16.63.25,24.83,1.4C78.23,7.87,83.66,8.7,89,8c19.15-2.51,38.33-.8,57.48-1,7.49-.09,15,1.59,22.5,2.42a39.25,39.25,0,0,0,4.34.13c22.3,0,44.6.56,66.88-.29C248,8.93,256,9.32,263.75,7A11,11,0,0,1,267,6.83c22.66,0,45.34-.75,68,.32,11.19.52,22.4,1.43,33.54.77,8.65-.51,17.29-1.39,25.93-1,7.16.34,14.27,1.68,21.41,2.42a78.26,78.26,0,0,0,7.84.05l.62,4h-11c3.62,3.2,8.25-.57,11.91,3.43-2.22,3.64-5.1,2-7.61,1.94s-5-1-7.44-1c-7.07-.15-14.14,0-21.21-.07a93.93,93.93,0,0,0-21.41,2.54,22.79,22.79,0,0,1-4.89.18c-27.18,0-54.37-.19-81.56.13-8.54.1-17.07,1.6-25.61,2.46-.54.05-1.08.09-1.62.11-12.09.46-24.17,1.07-36.26,1.33q-15.5.33-31,0c-11.55-.25-23.16,0-34.61-1.52-15.74-2.09-31.5-1.75-47.14-.74-14.65,1-29.26.58-43.89.85-6.64.13-13.42-2-19.92-1-11,1.75-22,.5-33,1.07-1.26.07-2.53,0-3.83,0C.16,19.63-.23,14.65.09,9.59Z"/></svg>