<svg id="Calque_1" data-name="Calque 1" xmlns="http://www.w3.org/2000/svg" viewBox="0 0 425.2 27.83"><title>barres</title><path d="M1.29,14.89a49.13,49.13,0,0,1,6.87-1c23.34-.26,46.69-.32,70-.64,26.24-.36,52.47-.88,78.71-1.42,18.45-.39,36.9-.91,55.35-1.42q23.67-.66,47.33-1.44c11.65-.4,23.29-.79,34.93-1.44,20.1-1.11,40.18-2.46,60.28-3.65A48.8,48.8,0,0,1,372.61,5.8c9.87,3.06,20.29,4.48,30.55,6.24,5.72,1,11.57,1.19,17.36,1.83a18.4,18.4,0,0,1,3.39,1.26c-10.38,1.35-19.7,2.2-28.86,3.85A239.11,239.11,0,0,0,369,25.16c-4.68,1.41-9.15.86-13.68.64-16-.77-32-1.89-48-2.66-14.06-.68-28.14-1.1-42.21-1.59-14.56-.5-29.12-1-43.68-1.41q-29.13-.81-58.27-1.44-33.88-.76-67.76-1.43l-94-1.89Z"/></svg>