<svg id="Calque_1" data-name="Calque 1" xmlns="http://www.w3.org/2000/svg" viewBox="0 0 425.2 29.97"><title>barres</title><path d="M0,13.88,1.9,9.06A91.15,91.15,0,0,1,31.71,8c7.21.82,14.57.43,21.86.44,18.72,0,37.44,0,56.16-.08,8.5,0,17-.09,25.52,0,34.29.16,68.58.23,102.87.59,20.64.21,41.31.35,61.91,1.5,34.26,1.91,68.53.31,102.78,1.13,4.35.1,8.68.74,13,1.09s7,2.76,9.36,5.66c-1.18,3.31-3.73,3.36-6.11,3.4-3.89.06-7.78-.16-11.67-.15-33.8.06-67.6.06-101.4.26-22.09.13-44.19.89-66.28.78-36.93-.2-73.86-.8-110.79-1.39-16-.26-32-.9-48-1.4-14.56-.45-29.12-.89-43.67-1.44C28.75,18,20.28,17.5,11.8,17.09,6.66,16.84,5.68,16.6,0,13.88Z"/></svg>