<svg id="Calque_1" data-name="Calque 1" xmlns="http://www.w3.org/2000/svg" viewBox="0 0 425.2 425.2"><title>barres</title><path d="M411,0V14.61c0,102.47-.62,205,.29,307.42.24,26.87-16.21,51.51-46.77,61-15.53,4.81-30.63,6-46.35,1s-27.81-13.72-30.56-30.67c-2.86-17.6,5.11-31.49,18.56-42.37,19.26-15.57,41.48-19.54,65.48-16.18,2.69.38,5.4.66,8,1,3.48-10.08,4.33-176.25,1.15-192.72-31.41-8.58-192.06,16.62-240.26,39.7-.31,5.23-1,11.13-1,17q-.24,100.85-.31,201.71c-.06,32.64-21,57.18-53.76,62.09-17.06,2.56-34,3.1-50-6.19-24.37-14.17-29.4-40.64-8.3-63.31,20-21.47,45.45-29.22,74.6-23.33,1.81.36,3.61.75,5.43,1,.4.06.86-.32,3.36-1.35,1.89-13,.58-27.16.79-41.23.21-13.9,0-27.82,0-41.73q0-21.56,0-43.12t0-43.13q0-20.86,0-41.73c0-14.34,0-28.68,0-42.49C152.34,49.88,330.57,4,411,0ZM141,95.2c-1.19,8.61-3.51,17.57,1.87,25.37,39.91-9.41,78.79-19.54,118.1-27.6,39.67-8.13,79.77-14.22,120.39-21.34V35.72C349.64,26.73,183,72.18,141,95.2Z"/></svg>